<?xml version="1.0" encoding="UTF-8"?>
<svg width="20px" height="20px" viewBox="0 0 20 20" version="1.1" xmlns="http://www.w3.org/2000/svg" xmlns:xlink="http://www.w3.org/1999/xlink">
    <title>F1233EE8-91FB-41B8-82BB-D4AD6B224F82</title>
    <g id="Page-1" stroke="none" stroke-width="1" fill="none" fill-rule="evenodd">
        <g id="adding-new-API-Calls" transform="translate(-1178.000000, -354.000000)" fill-rule="nonzero">
            <g id="Dropdown/Select/Default-Copy-9" transform="translate(1168.000000, 344.000000)">
                <g id="015-calendar" transform="translate(10.000000, 10.000000)">
                    <path d="M17.7975391,0.033046875 L2.20183594,0.033046875 C1.71601563,0.033046875 1.32226562,0.42734375 1.32226562,0.913164062 L1.32226562,3.83941406 L18.6775781,3.83941406 L18.6775781,0.913164062 C18.6775781,0.427304687 18.2833203,0.033046875 17.7975391,0.033046875 Z M5.7875,1.79382812 C5.55496094,1.79382812 5.36625,1.60511719 5.36625,1.37257812 C5.36625,1.14003906 5.55496094,0.951328125 5.7875,0.951328125 C6.02003906,0.951328125 6.20875,1.14003906 6.20875,1.37257812 C6.20875,1.60511719 6.02,1.79382812 5.7875,1.79382812 Z M14.3225,1.79382812 C14.0899609,1.79382812 13.90125,1.60511719 13.90125,1.37257812 C13.90125,1.14003906 14.0899609,0.951328125 14.3225,0.951328125 C14.5550391,0.951328125 14.74375,1.14003906 14.74375,1.37257812 C14.74375,1.60511719 14.555,1.79382812 14.3225,1.79382812 Z" id="Shape" fill="#E6E6E6"></path>
                    <path d="M19.9806641,4.04386719 L18.6495312,10.9854297 L19.1932031,18.2039062 C19.2330859,18.7335547 18.8140625,19.1857031 18.2821875,19.1857031 L1.7171875,19.1857031 C1.18585937,19.1857031 0.766289062,18.7335547 0.806171875,18.2039062 L1.35042969,10.9854297 L0.019296875,4.04386719 C-0.1059375,3.39121094 0.394492187,2.78515625 1.05949219,2.78515625 L18.9399609,2.78515625 C19.6055078,2.78515625 20.1058984,3.39121094 19.9806641,4.04386719 Z" id="Path" fill="#3A5BBC"></path>
                    <path d="M18.2821875,19.1856641 L1.7171875,19.1856641 C1.18585937,19.1856641 0.766289062,18.7335156 0.806171875,18.2038672 L1.35042969,10.9853906 L10.8986719,10.9853906 L18.6495703,10.9853906 L19.1932422,18.2038672 C19.233125,18.7335156 18.8141016,19.1856641 18.2821875,19.1856641 Z" id="Path" fill="#518EF8"></path>
                    <g id="Group" transform="translate(4.570312, 6.367188)" fill="#FFFFFF">
                        <path d="M5.09261719,2.806875 C5.09261719,1.45191406 3.95878906,0.349609375 2.56515625,0.349609375 C1.17152344,0.349609375 0.0376953125,1.45191406 0.0376953125,2.806875 L0.880195313,2.806875 C0.880195313,1.91648437 1.63609375,1.19210937 2.56519531,1.19210937 C3.49429687,1.19210937 4.25019531,1.91648438 4.25019531,2.806875 C4.25019531,3.69726562 3.49429687,4.42164063 2.56519531,4.42164063 L1.77886719,4.42164063 L1.77886719,5.26414062 L2.56519531,5.26414062 C3.49429687,5.26414062 4.25019531,5.98851562 4.25019531,6.87890625 C4.25019531,7.76929687 3.49429687,8.49367188 2.56519531,8.49367188 C1.63609375,8.49367188 0.880195313,7.76929688 0.880195313,6.87890625 L0.0376953125,6.87890625 C0.0376953125,8.23386719 1.17152344,9.33617187 2.56515625,9.33617187 C3.95878906,9.33617187 5.09261719,8.23386719 5.09261719,6.87890625 C5.09261719,6.03269531 4.65035156,5.28507813 3.97882812,4.84289062 C4.65039063,4.40074219 5.09261719,3.65308594 5.09261719,2.806875 Z" id="Path"></path>
                        <polygon id="Path" points="6.73003906 1.7853125 7.16222656 2.50851562 8.82769531 1.51332031 8.82769531 8.91492188 9.67015625 8.91492188 9.67015625 0.0284375"></polygon>
                    </g>
                </g>
            </g>
        </g>
    </g>
</svg>